<svg height="32" viewBox="0 0 32 32" width="32" xmlns="http://www.w3.org/2000/svg">
<path style="fill: #C1F48F;" d="m13.5 30.8149a1.0011 1.0011 0 0 1 -.4927-.13l-8.5-4.815a1 1 0 0 1 -.5073-.8699v-10a1 1 0 0 1 .5073-.87l8.5-4.815a1.0013 1.0013 0 0 1 .9854 0l8.5 4.815a1 1 0 0 1 .5073.87v10a1 1 0 0 1 -.5073.87l-8.5 4.815a1.0011 1.0011 0 0 1 -.4927.1299zm-7.5-6.3979 7.5 4.2485 7.5-4.2485v-8.834l-7.5-4.2485-7.5 4.2485z"/>
<path style="fill: #C1F48F;" d="m28 17h-2v-9.417l-7.5-4.2485-8.0073 4.5355-.9854-1.74 8.5-4.815a1.0013 1.0013 0 0 1 .9854 0l8.5 4.815a1 1 0 0 1 .5073.87z"/>
<path d="m0 0h32v32h-32z" fill="none" transform="matrix(-1 0 0 -1 32 32)"/>
</svg>