<svg width="210" height="210" viewBox="0 0 210 210" fill="none" xmlns="http://www.w3.org/2000/svg">
<g id="eau (1) 1">
<path id="Vector" d="M129.809 101.208C137.442 113.958 134.4 128.388 126.012 136.595C121.752 140.763 116.587 143.176 110.751 144.143C103.245 145.388 96.0262 144.5 89.3389 140.715C81.7053 136.395 77.5315 129.676 76.016 121.131C74.7408 113.942 76.6223 107.421 79.9664 101.17C83.8164 93.9741 88.725 87.5212 94.066 81.397C97.51 77.448 101.141 73.6619 104.895 69.5769C106.213 70.9767 107.346 72.1991 108.5 73.4018C115.584 80.7877 122.18 88.5634 127.624 97.2629C127.884 97.6775 128.119 98.1068 128.309 98.6114C127.147 98.8733 126.413 99.507 126.075 100.542C125.7 100.51 125.399 100.484 125.101 100.453C125.103 100.447 125.112 100.437 125.108 100.38C125.051 100.273 124.997 100.223 124.887 100.129C119.338 90.8711 112.442 82.7857 104.957 75.1626C98.9943 80.6267 89.7825 91.8862 85.5529 99.2299C83.7302 102.395 82.3271 105.801 80.7002 109.146C80.6782 109.249 80.6894 109.304 80.7006 109.359C80.7707 109.326 80.8407 109.294 80.9834 109.246C82.0252 108.748 82.9827 108.241 83.9654 107.788C89.5402 105.221 94.9855 105.297 100.261 108.624C103.451 110.636 106.641 112.647 109.823 114.731C109.722 115.117 109.462 115.506 109.564 115.728C110.093 116.869 110.715 117.968 111.305 119.081C111.427 119.08 111.548 119.078 111.67 119.077C111.705 118.753 111.804 118.421 111.764 118.106C111.666 117.335 112.041 116.85 112.731 117.012C113.591 117.213 114.009 116.774 114.565 116.268C119.109 117.088 123.42 116.459 127.597 114.867C130.842 113.63 130.674 114.47 129.633 110.831C128.919 108.335 127.763 105.965 126.881 103.53C127.233 103.183 127.509 102.843 127.907 102.353C128.406 102.053 129.108 101.63 129.809 101.208ZM94.1827 136.077C95.6332 135.856 95.5126 134.627 95.6474 133.583C96.6973 133.611 97.6227 133.558 98.0647 132.252C97.6299 132.356 97.3469 132.472 97.0611 132.479C96.6929 132.489 96.1502 132.539 95.9993 132.336C95.835 132.115 96.0312 131.624 96.0747 131.252C96.1021 131.016 96.1375 130.782 96.1693 130.547C95.9217 130.64 95.5378 130.664 95.4511 130.837C95.1388 131.46 94.9268 132.134 94.6711 132.803C94.3078 132.822 93.7096 132.677 93.4018 132.912C92.9587 133.25 92.4797 133.855 92.4585 134.364C92.4199 135.292 93.1238 135.84 94.1827 136.077ZM98.4431 129.7C98.3291 129.24 98.215 128.78 98.1009 128.32C97.9936 128.326 97.8863 128.331 97.7789 128.336C97.7098 128.831 97.6406 129.327 97.5812 129.752C96.7078 129.89 96.4625 128.343 95.4195 128.968C96.3604 129.963 97.2261 130.893 98.1154 131.8C98.2324 131.919 98.4699 131.92 98.6515 131.976C98.6694 131.77 98.7064 131.563 98.6988 131.358C98.6934 131.214 98.6277 131.071 98.613 131.017C99.2482 130.806 99.8042 130.621 100.36 130.437C100.334 130.331 100.307 130.226 100.281 130.121C99.721 130.004 99.1613 129.888 98.4431 129.7Z" fill="black"/>
<path id="Vector_2" d="M160.227 138.566C158.916 139.268 157.604 139.97 156.15 140.749C155.922 135.391 155.701 130.2 155.47 124.761C157.045 125.657 158.476 126.472 160.138 127.417C160.877 124.611 161.735 121.949 162.269 119.224C164.936 105.632 163.236 92.5717 156.664 80.3707C147.612 63.5623 133.506 53.488 114.743 49.9427C114.263 49.852 113.772 49.799 113.305 49.6614C111.729 49.1963 110.807 47.6544 111.128 46.0704C111.45 44.4781 112.845 43.4272 114.531 43.6408C118.777 44.1784 122.919 45.2049 126.903 46.7452C148.769 55.2 162.593 70.8349 168.066 93.6139C171.061 106.077 169.952 118.403 165.481 130.57C165.532 131.074 165.522 131.509 165.729 131.777C166.151 132.324 166.755 132.736 167.147 133.299C167.316 133.543 167.282 134.225 167.097 134.352C166.765 134.58 166.248 134.539 165.808 134.61C165.759 134.24 165.666 133.87 165.674 133.502C165.68 133.215 165.81 132.93 165.886 132.645C165.529 132.837 165.023 132.944 164.851 133.243C164.611 133.661 164.621 134.223 164.507 134.812C162.915 134.548 162.369 135.603 162.015 136.867C161.376 136.792 160.796 136.725 160.217 136.657C160.22 137.259 160.224 137.86 160.228 138.462C160.228 138.497 160.228 138.531 160.227 138.566Z" fill="black"/>
<path id="Vector_3" d="M40.3868 112.568C39.3831 99.4172 42.1807 87.112 48.6412 75.6327C49.4789 74.1442 50.4437 72.7273 51.4876 71.2352C52.2386 70.7538 52.8819 70.35 53.4543 69.8628C53.8549 69.5219 54.0816 68.9114 54.5209 68.6938C55.5964 68.1612 55.6267 67.3303 55.5149 66.3676C57.0678 66.9925 57.8198 66.1472 57.7424 63.9C58.7437 64.2427 59.6175 64.1066 60.1583 63.1265C60.2467 62.9663 60.0603 62.6544 59.9794 62.3251C59.5623 62.7046 59.2987 62.9445 58.9116 63.2967C58.8485 62.8404 58.8119 62.5762 58.7753 62.3121C63.3664 57.4171 68.7344 53.5484 74.6313 50.399C80.6254 47.1978 86.9835 45.0302 93.6815 43.8664C93.9196 43.825 94.1509 43.7445 94.4496 43.6651C94.4496 41.88 94.4496 40.1052 94.4496 38.0962C99.0318 41.0086 103.457 43.8209 107.969 46.6887C103.454 49.5601 99.0648 52.3521 94.5088 55.25C94.5088 53.46 94.5088 51.8184 94.5088 49.946C92.2714 50.506 90.1715 50.8908 88.1644 51.5555C65.825 58.9542 52.1801 74.2039 47.3568 97.2152C46.6105 100.776 46.6916 104.509 46.3007 108.271C45.8585 108.906 45.2862 109.403 45.2073 109.969C45.1046 110.705 45.6075 111.32 46.4265 111.514C46.4234 111.606 46.4203 111.699 46.324 111.86C45.9184 111.731 45.5695 111.575 45.301 111.33C44.7097 110.792 44.1793 110.185 43.578 109.66C43.4219 109.523 43.0958 109.581 42.8477 109.55C42.8345 109.732 42.7398 110.011 42.8213 110.079C43.3892 110.55 43.1285 111.007 42.9592 111.567C42.7553 112.24 42.5492 113.057 43.3639 113.532C44.151 113.992 44.9326 114.029 45.6194 113.264C45.8141 113.047 46.124 112.933 46.381 112.772C46.696 114.548 46.8969 116.354 47.3497 118.094C48.2883 121.701 49.3143 125.287 50.3945 128.855C51.1138 131.231 49.5092 133.427 47.1264 133.134C45.8242 132.974 44.904 132.224 44.5445 130.981C43.3836 126.964 42.2745 122.933 41.1728 118.9C40.9992 118.265 40.9672 117.591 40.945 116.85C41.2905 116.846 41.5607 116.926 41.8309 117.006C41.8948 116.702 41.9358 116.391 42.0277 116.097C42.1794 115.61 42.364 115.134 42.5278 114.674C43.2106 114.764 43.8196 115.544 44.1177 114.382C42.8598 113.771 41.6233 113.169 40.3868 112.568Z" fill="black"/>
<path id="Vector_4" d="M155.648 147.7C154.006 149.597 152.479 151.611 150.702 153.372C140.502 163.48 128.272 169.609 114.063 171.717C107.942 172.626 101.803 172.588 95.6408 171.585C95.5178 170.741 95.429 170 95.4152 169.268C95.7917 169.445 96.1554 169.814 96.383 169.744C96.9925 169.555 97.5678 169.213 98.0989 168.848C98.214 168.769 98.0867 168.338 98.067 167.998C97.5354 168.376 97.182 168.627 96.8286 168.878C96.7449 168.525 96.8105 168.338 96.9333 168.203C97.2658 167.838 97.6995 167.514 97.1572 166.989C96.6335 166.482 96.1694 166.563 95.5985 166.985C94.653 167.685 94.8966 168.443 95.2627 169.251C94.5987 168.806 94.0375 168.797 93.3707 169.158C93.0597 169.326 92.5752 169.165 92.1697 169.171C91.9497 169.175 91.7304 169.218 91.5107 169.243C91.5556 169.451 91.5732 169.671 91.6509 169.866C91.8121 170.272 92.0052 170.665 92.1852 171.063C81.9274 169.034 72.7273 164.721 64.5365 158.239C60.9627 155.41 57.7617 152.197 54.8014 148.638C53.213 149.545 51.6538 150.435 49.9351 151.416C50.0491 148.701 50.1556 146.164 50.3561 143.558C50.5749 143.667 50.6997 143.846 51.0187 144.305C51.0937 143.696 51.1785 143.39 51.1591 143.091C51.1057 142.267 51.5553 141.952 52.2796 142.002C53.3955 142.079 53.4364 142.055 53.0489 140.875C54.154 141.185 54.9786 140.608 55.2818 139.775C55.5387 139.069 55.9624 138.843 56.4981 138.58C59.224 139.967 61.95 141.355 64.8288 142.82C63.242 143.745 61.8333 144.565 60.2909 145.464C60.6385 145.873 60.9337 146.242 61.2508 146.591C71.1755 157.507 83.4164 164.142 98.0998 165.686C119.083 167.892 136.439 160.659 150.181 144.693C151.572 143.077 152.491 142.708 154.293 143.376C153.999 143.801 153.676 144.102 153.4 144.361C152.945 144.185 152.557 144.034 152.168 143.883C152.093 143.96 152.018 144.037 151.943 144.114C152.119 144.484 152.214 144.933 152.485 145.211C153.425 146.177 154.246 147.315 155.648 147.7ZM149.264 147.614C149.022 147.632 148.78 147.649 148.827 147.645C148.71 148.517 148.672 149.197 148.519 149.851C148.289 150.832 148.93 151.697 149.926 151.847C151.023 152.012 151.407 151.187 152.104 150.518C151.18 149.548 150.288 148.611 149.264 147.614ZM147.113 154.742C147.64 155.111 147.801 154.805 147.793 154.336C147.771 153.08 147.809 153.044 149.089 153.036C149.285 153.035 149.523 152.871 149.656 152.711C149.706 152.65 149.562 152.302 149.429 152.233C148.475 151.735 147.514 151.246 146.525 150.825C146.286 150.723 145.822 150.785 145.669 150.957C145.521 151.123 145.546 151.569 145.658 151.819C146.079 152.767 146.566 153.686 147.113 154.742Z" fill="black"/>
<path id="Vector_5" d="M160.299 138.555C160.228 138.531 160.228 138.497 160.228 138.462C160.224 137.86 160.22 137.259 160.217 136.657C160.796 136.725 161.376 136.792 162.015 136.867C162.369 135.603 162.915 134.548 164.507 134.812C164.621 134.223 164.612 133.661 164.851 133.243C165.023 132.944 165.529 132.837 165.886 132.645C165.81 132.93 165.68 133.215 165.674 133.502C165.666 133.87 165.759 134.241 165.808 134.61C166.248 134.539 166.765 134.58 167.097 134.352C167.282 134.225 167.316 133.543 167.147 133.299C166.755 132.736 166.151 132.324 165.729 131.777C165.522 131.509 165.532 131.074 165.474 130.645C167.071 131.458 168.638 132.342 170.432 133.354C169.62 133.699 169.004 133.96 168.27 134.167C168.035 134.22 167.918 134.325 167.801 134.431C167.543 134.641 167.312 134.9 167.025 135.053C164.813 136.228 162.591 137.382 160.299 138.555Z" fill="black"/>
<path id="Vector_6" d="M56.4544 138.523C55.9625 138.843 55.5389 139.069 55.2819 139.775C54.9787 140.608 54.1542 141.185 53.049 140.875C53.4365 142.055 53.3956 142.079 52.2797 142.002C51.5555 141.952 51.1059 142.267 51.1592 143.091C51.1786 143.39 51.0938 143.696 51.0188 144.305C50.6998 143.846 50.575 143.667 50.391 143.467C50.3447 142.935 50.3578 142.423 50.4599 141.82C50.5055 141.526 50.4621 141.324 50.4186 141.122C50.4185 140.828 50.4184 140.534 50.5128 140.156C51.1122 140.284 51.6171 140.497 52.1219 140.71C52.2009 140.66 52.2798 140.611 52.3588 140.561C51.5593 139.334 52.8208 138.082 52.1447 136.844C52.1047 136.771 52.2453 136.599 52.3019 136.473C53.6715 137.138 55.041 137.802 56.4544 138.523Z" fill="black"/>
<path id="Vector_7" d="M125.099 100.459C125.399 100.484 125.7 100.51 126.075 100.542C126.413 99.507 127.147 98.8734 128.339 98.682C128.879 99.4663 129.334 100.262 129.799 101.133C129.108 101.63 128.406 102.053 127.907 102.353C127.509 102.843 127.233 103.183 126.825 103.487C126.162 102.455 125.631 101.457 125.099 100.459Z" fill="black"/>
<path id="Vector_8" d="M155.708 147.649C154.246 147.315 153.425 146.177 152.485 145.211C152.214 144.933 152.119 144.484 151.943 144.114C152.018 144.037 152.093 143.96 152.168 143.884C152.557 144.034 152.945 144.185 153.4 144.361C153.676 144.103 153.999 143.801 154.353 143.429C156.161 144.565 156.556 145.775 155.708 147.649Z" fill="black"/>
<path id="Vector_9" d="M45.2474 112.93L45.2473 112.93C44.9743 113.234 44.721 113.341 44.4914 113.359C44.2476 113.377 43.9578 113.3 43.6161 113.101L43.364 113.532L43.6161 113.101C43.3628 112.953 43.2924 112.785 43.2784 112.588C43.261 112.345 43.3335 112.056 43.4378 111.712C43.4568 111.649 43.4774 111.586 43.4998 111.519L43.5034 111.508C43.5241 111.446 43.5466 111.378 43.5672 111.311C43.6102 111.17 43.6544 111.001 43.6658 110.821C43.6747 110.68 43.6635 110.529 43.6177 110.375C43.774 110.526 43.9293 110.682 44.088 110.842C44.1112 110.865 44.1344 110.889 44.1578 110.912C44.4148 111.172 44.6826 111.443 44.9644 111.7L45.301 111.33L44.9644 111.7C45.236 111.947 45.5749 112.122 45.8801 112.274C45.8873 112.323 45.8918 112.379 45.8942 112.446C45.8436 112.48 45.7884 112.515 45.7261 112.555C45.721 112.558 45.7159 112.561 45.7108 112.564L45.7077 112.566C45.5786 112.648 45.3962 112.764 45.2474 112.93Z" fill="black" stroke="black"/>
<path id="Vector_10" d="M95.3402 169.26C95.429 170 95.5178 170.741 95.5705 171.541C94.4728 171.443 93.4111 171.286 92.2674 171.096C92.0052 170.665 91.8122 170.272 91.651 169.866C91.5733 169.671 91.5556 169.451 91.5107 169.243C91.7304 169.218 91.9497 169.175 92.1697 169.171C92.5753 169.165 93.0597 169.326 93.3707 169.158C94.0376 168.797 94.5988 168.806 95.2628 169.251C95.34 169.26 95.3402 169.26 95.3402 169.26Z" fill="black"/>
<path id="Vector_11" d="M40.3743 112.658C41.6234 113.169 42.8599 113.77 44.1178 114.382C43.8197 115.544 43.2107 114.764 42.5279 114.673C42.3641 115.134 42.1795 115.61 42.0278 116.097C41.9358 116.391 41.8949 116.702 41.831 117.006C41.5608 116.926 41.2905 116.846 40.9444 116.756C40.6995 115.413 40.5306 114.08 40.3743 112.658Z" fill="black"/>
<path id="Vector_12" d="M52.2729 136.408C52.2454 136.599 52.1048 136.771 52.1447 136.844C52.8208 138.082 51.5593 139.334 52.3588 140.561C52.2799 140.611 52.2009 140.661 52.122 140.71C51.6171 140.497 51.1122 140.285 50.5322 140.07C50.457 138.586 50.457 137.104 50.457 135.364C51.2369 135.791 51.7403 136.067 52.2729 136.408Z" fill="black"/>
<path id="Vector_13" d="M58.7104 62.3426C58.812 62.5762 58.8486 62.8404 58.9117 63.2967C59.2988 62.9445 59.5624 62.7046 59.9795 62.3251C60.0604 62.6544 60.2468 62.9662 60.1584 63.1265C59.6176 64.1066 58.7438 64.2426 57.7425 63.9C57.8199 66.1472 57.0678 66.9924 55.5146 66.3672C55.4401 66.36 55.4394 66.3593 55.4399 66.2872C55.4387 66.1187 55.437 66.0225 55.4353 65.9262C56.5053 64.7419 57.5754 63.5575 58.7104 62.3426Z" fill="black"/>
<path id="Vector_14" d="M55.4403 66.3603C55.6266 67.3302 55.5963 68.1612 54.5208 68.6938C54.0815 68.9114 53.8548 69.5218 53.4542 69.8628C52.8818 70.3499 52.2385 70.7537 51.5452 71.1941C52.6462 69.597 53.8276 67.9988 55.1444 66.3741C55.333 66.3515 55.3862 66.3554 55.4393 66.3594C55.4393 66.3594 55.4399 66.36 55.4403 66.3603Z" fill="black"/>
<path id="Vector_15" d="M46.4567 111.447C45.6075 111.32 45.1046 110.705 45.2073 109.969C45.2863 109.403 45.8585 108.906 46.2834 108.367C46.3992 109.364 46.443 110.372 46.4567 111.447Z" fill="black"/>
<path id="Vector_16" d="M50.4011 141.199C50.4621 141.324 50.5055 141.526 50.4803 141.738C50.4023 141.591 50.3929 141.434 50.4011 141.199Z" fill="#03B8E6"/>
<path id="Vector_17" d="M167.864 134.421C167.918 134.325 168.035 134.22 168.189 134.167C168.126 134.284 168.027 134.348 167.864 134.421Z" fill="#04B8E6"/>
<path id="Vector_18" d="M55.44 66.2872C55.3864 66.3555 55.3333 66.3515 55.2004 66.3392C55.1829 66.2108 55.245 66.0909 55.3712 65.9486C55.437 66.0226 55.4387 66.1188 55.44 66.2872Z" fill="black"/>
<path id="Vector_19" d="M125.101 100.453C125.63 101.457 126.162 102.455 126.749 103.496C127.763 105.965 128.919 108.335 129.633 110.831C130.674 114.47 130.842 113.63 127.597 114.867C123.42 116.459 119.109 117.088 114.504 116.223C112.845 115.668 111.338 115.163 109.831 114.658C106.641 112.647 103.451 110.636 100.261 108.624C94.9854 105.298 89.5402 105.221 83.9654 107.788C82.9827 108.241 82.0252 108.748 80.9401 109.204C80.7939 109.151 80.7637 109.124 80.7334 109.098C82.3271 105.801 83.7301 102.395 85.5529 99.2299C89.7825 91.8862 98.9943 80.6267 104.957 75.1626C112.442 82.7857 119.338 90.8711 124.893 100.186C125.007 100.336 125.059 100.387 125.112 100.437C125.112 100.437 125.103 100.447 125.101 100.453Z" fill="#FDFEFE"/>
<path id="Vector_20" d="M94.1012 136.075C93.1239 135.84 92.4199 135.292 92.4585 134.364C92.4798 133.855 92.9588 133.25 93.4019 132.912C93.7096 132.677 94.3078 132.822 94.6711 132.803C94.9269 132.134 95.1389 131.46 95.4511 130.837C95.5379 130.664 95.9218 130.64 96.1694 130.547C96.1375 130.782 96.1021 131.016 96.0747 131.252C96.0313 131.624 95.8351 132.115 95.9993 132.336C96.1503 132.539 96.6929 132.489 97.0612 132.479C97.347 132.472 97.6299 132.356 98.0647 132.252C97.6227 133.558 96.6973 133.611 95.6474 133.583C95.5127 134.627 95.6333 135.856 94.1012 136.075Z" fill="black"/>
<path id="Vector_21" d="M109.823 114.731C111.338 115.163 112.845 115.668 114.413 116.218C114.009 116.774 113.591 117.213 112.731 117.012C112.041 116.85 111.666 117.335 111.764 118.107C111.804 118.421 111.705 118.753 111.67 119.077C111.548 119.078 111.427 119.08 111.305 119.081C110.715 117.968 110.093 116.869 109.564 115.728C109.462 115.506 109.722 115.117 109.823 114.731Z" fill="black"/>
<path id="Vector_22" d="M98.5223 129.736C99.1613 129.888 99.721 130.004 100.281 130.121C100.307 130.226 100.334 130.331 100.36 130.437C99.8042 130.621 99.2481 130.806 98.6129 131.017C98.6276 131.071 98.6933 131.214 98.6987 131.359C98.7063 131.563 98.6694 131.77 98.6515 131.976C98.4698 131.92 98.2324 131.919 98.1154 131.8C97.2261 130.893 96.3604 129.963 95.4194 128.968C96.4625 128.343 96.7077 129.89 97.5812 129.752C97.6405 129.327 97.7097 128.831 97.7789 128.336C97.8862 128.331 97.9935 128.326 98.1009 128.32C98.2149 128.78 98.329 129.24 98.5223 129.736Z" fill="black"/>
<path id="Vector_23" d="M80.8674 109.219C80.8407 109.294 80.7706 109.326 80.7006 109.359C80.6893 109.304 80.6781 109.249 80.7001 109.146C80.7636 109.124 80.7939 109.151 80.8674 109.219Z" fill="#FDFEFE"/>
<path id="Vector_24" d="M125.108 100.381C125.059 100.387 125.007 100.336 124.949 100.229C124.997 100.223 125.051 100.273 125.108 100.381Z" fill="#0DBAE5"/>
<path id="Vector_25" d="M149.329 147.644C150.288 148.611 151.18 149.548 152.104 150.518C151.407 151.187 151.023 152.012 149.926 151.847C148.93 151.697 148.289 150.832 148.519 149.851C148.672 149.197 148.711 148.517 148.827 147.645C148.78 147.649 149.022 147.632 149.329 147.644Z" fill="black"/>
<path id="Vector_26" d="M147.071 154.679C146.566 153.686 146.079 152.767 145.658 151.82C145.546 151.569 145.521 151.123 145.669 150.957C145.822 150.785 146.286 150.723 146.525 150.825C147.514 151.246 148.475 151.735 149.429 152.233C149.562 152.302 149.706 152.65 149.656 152.711C149.523 152.871 149.285 153.035 149.089 153.036C147.809 153.044 147.771 153.08 147.793 154.336C147.801 154.805 147.64 155.111 147.071 154.679Z" fill="black"/>
<path id="Vector_27" d="M95.3399 169.26C94.8968 168.443 94.6531 167.685 95.5986 166.985C96.1695 166.563 96.6336 166.482 97.1573 166.989C97.6996 167.514 97.2659 167.838 96.9334 168.203C96.8106 168.338 96.745 168.525 96.8287 168.878C97.1821 168.627 97.5355 168.376 98.0671 167.999C98.0868 168.338 98.2141 168.769 98.099 168.848C97.5679 169.213 96.9926 169.556 96.3831 169.744C96.1555 169.815 95.7918 169.445 95.4153 169.268C95.3403 169.26 95.3399 169.26 95.3399 169.26Z" fill="black"/>
</g>
</svg>
